<svg width="231" height="6" viewBox="0 0 231 6" fill="none" xmlns="http://www.w3.org/2000/svg">
<path d="M0.333333 3C0.333333 4.47276 1.52724 5.66667 3 5.66667C4.47276 5.66667 5.66667 4.47276 5.66667 3C5.66667 1.52724 4.47276 0.333333 3 0.333333C1.52724 0.333333 0.333333 1.52724 0.333333 3ZM225.333 2.99998C225.333 4.47274 226.527 5.66665 228 5.66665C229.473 5.66665 230.667 4.47274 230.667 2.99998C230.667 1.52722 229.473 0.333314 228 0.333314C226.527 0.333314 225.333 1.52722 225.333 2.99998ZM3 3.5L228 3.49998L228 2.49998L3 2.5L3 3.5Z" fill="#FAF4F4" fill-opacity="0.5"/>
</svg>
