<svg width="552" height="6" viewBox="0 0 552 6" fill="none" xmlns="http://www.w3.org/2000/svg">
<path d="M0.333333 3C0.333333 4.47276 1.52724 5.66667 3 5.66667C4.47276 5.66667 5.66667 4.47276 5.66667 3C5.66667 1.52724 4.47276 0.333333 3 0.333333C1.52724 0.333333 0.333333 1.52724 0.333333 3ZM546.333 3.00005C546.333 4.47281 547.527 5.66671 549 5.66671C550.473 5.66671 551.667 4.47281 551.667 3.00005C551.667 1.52729 550.473 0.333381 549 0.333381C547.527 0.333381 546.333 1.52729 546.333 3.00005ZM3 3.5L549 3.50005L549 2.50005L3 2.5L3 3.5Z" fill="#FAF4F4" fill-opacity="0.5"/>
</svg>
